<?xml version="1.0" standalone="no"?><!DOCTYPE svg PUBLIC "-//W3C//DTD SVG 1.1//EN" "http://www.w3.org/Graphics/SVG/1.1/DTD/svg11.dtd"><svg t="1776157237614" class="icon" viewBox="0 0 1024 1024" version="1.1" xmlns="http://www.w3.org/2000/svg" p-id="16145" xmlns:xlink="http://www.w3.org/1999/xlink" width="200" height="200"><path d="M133.064145 383.925527q0 183.984873 317.384146 549.422546c4.338036 5.026909 9.942109 8.043055 15.825454 9.104291l76.222837 37.739054 41.127563-127.944145-51.963345 34.238836Q808.997236 555.920291 808.997236 383.906909c0-110.443055-51.2-208.709818-130.774109-271.602036l8.378182-3.258182-69.073454-35.188364v0.186182A331.924945 331.924945 0 0 0 471.04 40.1408c-186.665891 0-337.975855 153.916509-337.975855 343.766109z m506.954473-57.288145c0 94.934109-75.664291 171.883055-168.978618 171.883054-93.332945 0-168.997236-76.948945-168.997236-171.883054 0-94.934109 75.664291-171.883055 168.997236-171.883055 93.314327 0 168.978618 76.948945 168.978618 171.883055z" fill="#6D90FF" p-id="16146"></path><path d="M532.368291 974.326691q-317.365527-365.437673-317.365527-549.422546c0-189.868218 151.309964-343.784727 337.957236-343.784727 186.665891 0 337.975855 153.916509 337.975855 343.766109q0 184.003491-317.384146 549.422546a27.0336 27.0336 0 0 1-41.183418 0zM552.96 539.480436c93.332945 0 168.997236-76.948945 168.997236-171.883054 0-94.934109-75.664291-171.883055-168.997236-171.883055-93.314327 0-168.978618 76.948945-168.978618 171.883055 0 94.934109 75.664291 171.883055 168.978618 171.883054z" fill="#3766FF" p-id="16147"></path></svg>